<?xml version="1.0"?>
<svg xmlns:rdf="http://www.w3.org/1999/02/22-rdf-syntax-ns#" xmlns="http://www.w3.org/2000/svg" xmlns:cc="http://creativecommons.org/ns#" xmlns:dc="http://purl.org/dc/elements/1.1/" xmlns:svg="http://www.w3.org/2000/svg" id="svg2859" viewBox="0 0 216.94 258.21" version="1.0">
  <g id="layer1" transform="translate(-274.72 -413)">
    <path id="path2891" transform="translate(255.71 400.65)" d="m124.5 270.28c-6.65-0.73-7.39-1.18-8.08-4.86l-0.67-3.57-4.63 0.59c-11.538 1.47-14.437 1.55-22.729 0.6-7.485-0.85-8.96-0.77-9.662 0.48-1.079 1.93-3.729 1.91-3.729-0.02 0-1.04-1.049-1.5-3.441-1.5-3.81 0-4.53-0.71-5.23-5.15-0.316-2.01 0.107-3.67 1.252-4.94 2.415-2.67 4.419-2.4 4.419 0.59 0 2.03 0.493 2.5 2.6 2.5 4.097 0 8.839-5.51 10.771-12.51 2.337-8.47 4.255-11.83 8.633-15.12 2.826-2.12 3.553-3.2 2.787-4.12-0.727-0.88-0.639-1.73 0.297-2.86 1.11-1.33 2.679-1.49 9.372-0.96 14.32 1.14 15.54 1.13 15.54-0.13 0-0.86 2.48-1.08 9.08-0.8 7.73 0.34 9.85 0.83 14.25 3.3 6.59 3.69 9.7 4.46 17.39 4.28 4.27-0.1 7.88-0.92 11.5-2.6 2.9-1.35 6.24-2.46 7.42-2.47 3.14-0.01 6.63 3.13 5.81 5.25-0.89 2.34-2.52 2.2-3.16-0.26-0.7-2.69-3.1-2.52-9.46 0.69-9.57 4.84-19.9 3.89-32.07-2.95-2.06-1.15-4.01-1.83-4.33-1.5-0.92 0.91 3.57 4.98 4.92 4.46 0.66-0.26 2.95 1.26 5.09 3.37 3.82 3.75 3.92 4.01 4.56 12.92 0.71 9.87 1.86 12.1 6.37 12.36 1.43 0.08 2.82 0.71 3.09 1.4 0.66 1.73 2.35 1.58 2.18-0.19-0.28-2.87 1.88-1.98 2.8 1.15l0.95 3.21 10.3-0.6c7.03-0.41 10.31-0.26 10.31 0.47 0 1.4-3.51 2.5-5.75 1.81-0.96-0.3-4-0.16-6.75 0.31l-5 0.85 6.33 0.12c4.3 0.08 6.21 0.49 5.95 1.27-0.21 0.65-2.23 1.12-4.58 1.08-2.31-0.04-6.45-0.11-9.2-0.15-4.86-0.08-6.78-1.48-3.25-2.39 0.96-0.25-0.27-0.21-2.75 0.09-9.28 1.11-12.29 0.53-15.26-2.98-3.86-4.54-6.76-12.9-7.29-21.02-0.74-11.22-4.05-15.66-11.56-15.54l-4.6 0.07-0.66 11.51c-0.36 6.33-1.16 12.12-1.78 12.86-1.39 1.68-0.4 11.36 1.26 12.39 0.7 0.43 0.9 1.75 0.51 3.32-0.75 2.97-1.36 2.78 9.88 2.97 6.38 0.11 8 0.44 8 1.64s-1.53 1.51-7.5 1.56c-4.12 0.03-8.85-0.1-10.5-0.28zm-8.78-14.28c0.13-1.92 0.3-6.74 0.39-10.7 0.1-4.12 0.59-7.12 1.15-7 0.55 0.11 1.2-0.36 1.45-1.05s-0.01-1.25-0.59-1.25c-0.59 0-1.01-1.99-0.96-4.55 0.07-3.3-0.4-4.9-1.71-5.86-1.56-1.14-2.51-0.92-6.88 1.58-7.05 4.04-11.881 9.68-14.522 16.92-1.49 4.09-3.71 7.62-6.589 10.5l-4.342 4.35 11.192 0.28c6.151 0.15 13.441 0.28 16.191 0.28h5l0.22-3.5zm-42.22 2c0.34-0.55-0.335-1-1.5-1s-1.84 0.45-1.5 1 1.015 1 1.5 1 1.16-0.45 1.5-1zm13.455-6.3c2.071-3.32 0.434-2.89-3.322 0.87-1.998 1.99-3.633 3.79-3.633 3.98 0 0.94 5.919-3.19 6.955-4.85zm63.795-14.22c0-1.38-0.39-2.76-0.87-3.06-0.49-0.29-0.88 0.84-0.88 2.52s0.39 3.06 0.88 3.06c0.48 0 0.87-1.13 0.87-2.52zm45.87 30c-1.99-1.99-2.09-3.48-0.24-3.48 0.76 0 1.65 0.99 1.96 2.21 0.76 2.89 0.26 3.25-1.72 1.27zm-115.35-27.08c0.332-0.34 1.195-0.37 1.917-0.08 0.797 0.32 0.56 0.55-0.605 0.6-1.054 0.04-1.644-0.19-1.312-0.52zm5.035-12.49c-0.602-0.61-4.16-1.23-7.908-1.4-5.242-0.24-7.171-0.75-8.356-2.21-0.848-1.04-2.333-2.2-3.301-2.57-0.967-0.37-2.277-1.81-2.91-3.2-0.634-1.39-1.867-2.6-2.742-2.68-3.766-0.36-7.58 0.44-8.569 1.79-0.806 1.1-2.522 1.34-7.043 0.96-3.287-0.27-6.089-0.58-6.227-0.67-0.138-0.1-0.662-0.24-1.166-0.31-0.504-0.06-2.332-1.17-4.063-2.45-2.674-1.97-3.05-2.76-2.504-5.25 0.573-2.61 0.379-2.92-1.803-2.92-2.789 0-7.714-3.49-7.714-5.47 0-0.72-0.788-1.62-1.75-1.99-1.662-0.65-1.662-0.75-0.01-1.96 0.956-0.71 3.794-5.74 6.307-11.18 2.512-5.45 5.385-11.49 6.384-13.44 1-1.95 2.151-5.1 2.559-7 0.407-1.9 1.088-3.91 1.513-4.46 1.696-2.2 10.163-27.05 11.456-33.62 0.325-1.66 1.535-3.04 3.278-3.75 2.625-1.07 14.128-2.35 22.746-2.54 3.171-0.07 4.049-0.5 4.309-2.09 0.179-1.1 0.597-2.68 0.93-3.5s0.7-5.89 0.817-11.25c0.116-5.362 0.311-10.088 0.433-10.5s0.14-2.488 0.04-4.611c-0.099-2.124 0.195-3.63 0.653-3.346 0.459 0.283 0.9-0.566 0.979-1.886 0.079-1.321 1.475-4.54 3.102-7.154 4.134-6.644 5.081-9.539 6.302-19.253 1.366-10.88 1.295-12.8-0.542-14.637-1.722-1.722-1.709-1.669-0.899-3.781 0.334-0.87 1.23-1.582 1.992-1.582 1.021 0 1.322-1.252 1.143-4.75l-0.242-4.75 3.486 0.286c4.064 0.333 5.584 1.496 4.404 3.377-0.98 1.553-0.6 4.838 0.73 6.465 0.57 0.693 0.55 2.111-0.04 3.672-0.89 2.328-0.79 11.864 0.23 22.407 0.22 2.313 1.14 5.335 2.05 6.714 0.9 1.38 1.64 3.017 1.64 3.639s0.93 2.441 2.07 4.041c1.14 1.601 1.93 3.663 1.75 4.583-0.29 1.533-0.47 1.522-2.12-0.124-1.73-1.73-1.79-1.643-1.55 2.321 0.25 4.204 1.18 5.308 2.21 2.619 0.32-0.825 0.14-1.5-0.39-1.5s-0.97-0.45-0.97-1c0-1.39 1.28-1.248 3.52 0.392 1.57 1.146 1.68 1.66 0.64 2.911-0.78 0.95-0.89 1.747-0.27 2.128 1.36 0.84 0.95 4.569-0.5 4.569-0.64 0-1.44 0.675-1.75 1.5-0.33 0.859-0.02 1.5 0.72 1.5 1.38 0 1.68 6.3 0.36 7.61-0.38 0.39-0.22 1.29 0.38 2.01 0.61 0.73 0.87 3.47 0.6 6.34-0.3 3.2-0.08 5.04 0.6 5.04 0.58 0 5.1-0.52 10.03-1.15 6.25-0.8 9.53-1.71 10.82-3 1.02-1.02 2.25-1.85 2.74-1.85 0.84 0 1.9-5.18 2.7-13.25 0.33-3.383 0.14-3.75-2-3.75-2.96 0-6.6-2.863-6.99-5.501-0.16-1.1-0.92-2.084-1.69-2.187-0.78-0.104-4-0.474-7.16-0.822-5.55-0.611-5.75-0.738-5.75-3.562 0-1.61 0.64-6.865 1.41-11.678 1.39-8.562 3.22-20.772 4.02-26.75 0.22-1.65 0.5-3 0.62-3 0.23 0 0.3-0.437 1.99-12.5 0.65-4.675 1.37-9.4 1.58-10.5 0.22-1.1 0.68-3.49 1.01-5.31 0.45-2.416 1.02-3.153 2.13-2.73 2.76 1.059 23.61 1.865 44.24 1.709 7.75-0.059 10.34 0.896 8.2 3.031-1.61 1.611-1.52 2.861 0.16 2.216 1.8-0.691 1.03 9.118-0.97 12.299-0.76 1.218-1.39 4.593-1.39 7.5-0.01 8.877-3.06 25.61-6.06 33.285-0.43 1.1-0.8 2.675-0.82 3.5-0.14 5.06-1.14 15.221-1.57 15.915-0.28 0.453-4.83 0.77-10.12 0.703-6.49-0.082-9.82 0.264-10.27 1.066-0.37 0.653-1.98 1.425-3.58 1.716-3.82 0.692-4.52 1.992-4.68 8.6-0.17 7.74 0.14 10.45 1.26 10.85 0.53 0.2 1.35 1.37 1.82 2.6 0.79 2.08 1.52 2.26 9.89 2.41 9.63 0.18 18.35 0.79 24.24 1.71 3.46 0.54 3.63 0.42 4.15-2.79 0.97-5.98-0.13-8.51-4.92-11.32-5.87-3.44-6.74-5.97-5.42-15.733 1.53-11.425 1.5-11.391 11.81-12.199 7.59-0.595 9.41-0.412 13.52 1.357l4.75 2.044v9.089c0 8.412-0.21 9.352-2.75 12.552-1.96 2.47-3.83 3.65-6.5 4.08-2.06 0.33-3.75 1-3.75 1.48s-0.94 1.81-2.1 2.97c-1.53 1.53-1.8 2.4-1 3.2 0.6 0.6 1.1 2.16 1.1 3.46s0.4 2.11 0.88 1.81c0.49-0.3 3.47-0.07 6.64 0.52 5.71 1.05 18.62 2.85 21.48 2.99 6.85 0.32 9.19 2.49 9.65 8.92 0.53 7.36 3.28 34.66 3.83 38 0.92 5.51 4.77 17.34 6.21 19.08 2.65 3.19 0.89 7.97-3.44 9.34-1.94 0.62-2.18 1.22-1.72 4.4 0.3 2.02 0.19 4.13-0.25 4.68-1.39 1.78-5.19 3.5-7.71 3.5-1.35 0-2.75 0.48-3.11 1.06-0.36 0.59-1.74 1.47-3.06 1.98-1.61 0.61-2.4 1.7-2.4 3.31 0 2.42-2.19 5.13-3.26 4.05-0.32-0.32-2.3 0.59-4.39 2.01-2.1 1.43-4.55 2.59-5.44 2.59-2.3 0-12.91-7.16-12.91-8.71 0-1.8 0.49-1.68 6.66 1.71 6.84 3.75 8.74 3.75 12.48 0.01l2.99-2.99-0.53-15.76c-0.55-16.6 0.72-14.57 1.8 2.88 0.31 5.04 0.74 9.34 0.96 9.55 0.21 0.22 1.75-0.75 3.41-2.15s3.95-2.54 5.08-2.54c3.37 0 7.29-2.21 6.68-3.77-0.89-2.34-1.39-5.39-2-12.23-0.32-3.58-0.82-7.85-1.12-9.5-0.63-3.47-1.83-13.64-2.92-24.75-0.5-5-0.41-7.75 0.23-7.75 0.55 0 1.26 2.59 1.59 5.75 0.32 3.16 0.78 6.65 1.02 7.75s1.18 6.95 2.08 13c2.06 13.88 3.57 19.67 4.98 19.21 1.51-0.5 2-5.53 0.69-7.11-1.39-1.68-5.81-23.28-6.46-31.6-0.28-3.58-1.2-10.1-2.06-14.5s-1.56-9.42-1.56-11.15c0-3.01-0.21-3.17-4.75-3.73-9.51-1.17-11.81-1.18-15.25-0.06-1.92 0.63-8.67 1.1-14.99 1.04-9.36-0.08-11.54-0.38-11.77-1.6-0.24-1.23 1.35-1.54 8.9-1.74 5.06-0.13 9.68 0.12 10.27 0.54 0.6 0.43 2.89 0.51 5.09 0.18 4.43-0.67 4.64-0.58-6.78-3.06-4.11-0.89-6.1-0.94-6.85-0.19-0.66 0.66-2.14 0.77-3.83 0.28-1.51-0.43-6.3-0.83-10.64-0.88-4.35-0.05-10.38-0.39-13.4-0.75-5.43-0.64-5.48-0.62-3.73 1.34 1.44 1.61 2.67 1.9 6.62 1.52 2.97-0.29 5.12-0.04 5.54 0.65 0.43 0.69-0.19 1.14-1.62 1.19-1.27 0.05-3.43 0.28-4.81 0.51s-11.99 0.66-23.58 0.95c-11.59 0.3-22.39 0.93-24 1.41-2.91 0.87-2.9 0.88 0.83 0.96 2.06 0.05 3.75 0.51 3.75 1.01 0 0.55 14.79 0.97 36.25 1.02 19.94 0.05 37.15 0.18 38.25 0.28 1.1 0.11 6.05-0.22 11-0.72s9.45-0.93 10-0.96c0.55-0.02 1 0.63 1 1.46 0 1.08-1.25 1.55-4.5 1.68-2.48 0.1-6.98 0.45-10 0.77-3.02 0.33-6.18 0.57-7 0.53-3.9-0.19-62.8-0.18-65 0-4.99 0.42-33.68-1.31-41-2.47-1.925-0.3-5.446-0.58-7.825-0.61-3.417-0.05-4.204-0.38-3.75-1.57 0.316-0.82 0.575-1.68 0.575-1.91s1.125-0.42 2.5-0.42c2 0 2.5-0.5 2.5-2.5 0-3.32-1.066-3.4-17.192-1.37-8.4 1.06-8.729 1.2-9.75 4.13-0.582 1.67-1.061 3.76-1.064 4.64-0.004 0.88-0.723 2.95-1.599 4.6s-2.61 5.92-3.852 9.5c-2.528 7.27-5.422 14.36-9.798 24-1.623 3.58-3.661 8.3-4.528 10.5s-2.856 6.39-4.419 9.31l-2.843 5.32 2.13 2.99c2.761 3.88 6.042 3.59 7.108-0.62 0.418-1.65 1.472-5.7 2.342-9 1.259-4.78 4.004-16.96 4.392-19.5 0.689-4.51 1.465-7 2.184-7 1.121 0 1.162-0.68-0.651 10.59-0.846 5.26-2.244 11.33-3.105 13.48s-1.631 6.62-1.71 9.92c-0.08 3.3-0.483 6.01-0.895 6.01-1.228 0-0.851 5.48 0.5 7.27 1.881 2.49 7.25 2.97 13.932 1.26 9.893-2.53 11.697-2.18 17.57 3.42 3.694 3.52 6.277 5.12 8.968 5.55 4.423 0.71 12.429 2.62 13.579 3.24 0.843 0.46-1.064 3.26-2.221 3.26-0.373 0-1.17-0.49-1.772-1.09zm33.494-100.11c0.66-0.66 1.2-2.22 1.2-3.47 0-2.11-0.39-2.26-5.26-2.05-4.89 0.2-5.26 0.4-5.25 2.72 0.01 2.07 0.61 2.6 3.51 3.11 1.92 0.33 3.75 0.67 4.05 0.75s1.09-0.4 1.75-1.06zm-29.8-1.87c0-1.66-0.535-2-2.741-1.75-1.654 0.19-2.874 1.01-3.074 2.07-0.258 1.36 0.355 1.75 2.742 1.75 2.439 0 3.073-0.43 3.073-2.07zm4 0.07c0-1.1-0.45-2-1-2s-1 0.9-1 2 0.45 2 1 2 1-0.9 1-2zm31.49-0.02c-0.35-0.56-1.05-0.75-1.56-0.44-1.39 0.86-1.13 1.46 0.63 1.46 0.86 0 1.28-0.46 0.93-1.02zm12.78-2.07c-0.47-1.79-1.14-2.03-4.66-1.66-2.26 0.23-5.12 0.06-6.36-0.39-1.24-0.44-2.25-0.48-2.25-0.07 0 1.66 5.76 4.16 9.66 4.18 3.73 0.03 4.1-0.18 3.61-2.06zm5.93 1.09c0.63 0 0.55-0.59-0.2-1.5-1.8-2.17-4-1.84-4 0.61 0 1.51 0.45 1.93 1.58 1.5 0.87-0.34 2.05-0.61 2.62-0.61zm-51.968-4.99l5.732-0.01 0.054-4.75c0.164-14.4 0.049-21.516-0.353-21.919-0.249-0.248-2.685-0.583-5.414-0.743s-5.477-0.609-6.106-0.999c-1.375-0.849-1.517-3.289-0.219-3.756 1.261-0.454 2.524-5.833 1.369-5.833-0.507 0-1.859 2.138-3.006 4.75-1.681 3.831-1.814 4.812-0.69 5.073 1.117 0.258 1.161 0.754 0.221 2.5-0.645 1.197-1.364 7.757-1.599 14.567l-0.426 12.4 2.352-0.63c1.294-0.35 4.932-0.64 8.085-0.65zm44.768-2.01c0-0.55-0.68-1-1.5-1s-1.5 0.45-1.5 1 0.68 1 1.5 1 1.5-0.45 1.5-1zm-30.68-11.22c0.85-0.54 0.86-0.75 0.04-0.76-0.75-0.01-0.98-1.68-0.66-5.02 0.47-5.042-0.94-6.959-2.2-2.985-0.36 1.108-1.01 1.787-1.46 1.511-0.45-0.277-1.27 0.054-1.83 0.734-0.706 0.87-0.532 1.68 0.58 2.71 1.41 1.3 1.52 1.27 0.93-0.25-0.44-1.17-0.16-1.72 0.88-1.72 1.14 0 1.35 0.58 0.81 2.25-0.4 1.24-0.65 2.7-0.57 3.25 0.09 0.55 0.49 2.8 0.9 5l0.74 4 0.33-3.99c0.19-2.19 0.87-4.32 1.51-4.73zm79.45 3.41c0.22-0.66-0.32-1.19-1.19-1.19s-1.58 0.71-1.58 1.58c0 1.77 2.15 1.46 2.77-0.39zm9.76-7.33c1.63-1.69 2.48-4.079 2.95-8.36l0.66-6h-10.65c-9.12 0-10.84-0.26-11.97-1.81-1.71-2.325-2.34-1.197-2.99 5.269-0.7 7.104 0.17 9.871 3.85 12.201 4.47 2.82 14.87 2.08 18.15-1.3zm-50.71-10.926c1.51-0.977 1.5-1.028-0.15-0.51-1.01 0.317-4.07 0.576-6.81 0.576-3.41 0-4.76 0.351-4.29 1.118 0.81 1.31 8.67 0.482 11.25-1.184zm0.02-5.23c1.93-0.941 2.5-0.84 3.3 0.579 0.79 1.409 2.46 1.717 9.3 1.717h8.34l1.6-11.25c0.89-6.188 2.52-18.225 3.64-26.75 2.41-18.304 3.46-25.357 4.41-29.679 0.69-3.131 0.63-3.188-3.62-3.771-2.37-0.325-7.55-0.22-11.51 0.233-4.55 0.52-10.09 0.409-15.02-0.301-4.31-0.618-10.05-0.867-12.76-0.553-4.47 0.516-5.02 0.86-5.7 3.571-2.03 7.972-5.4 28.19-6.5 38.924-0.27 2.708-1.29 9.585-2.26 15.281-0.98 5.696-1.4 10.583-0.96 10.86 0.45 0.277 2.3 0.412 4.11 0.301s4.32 0.136 5.59 0.549c1.45 0.473 2.88 0.262 3.89-0.569 1.35-1.12 1.8-0.993 3.02 0.843 1.17 1.758 2.12 2.067 5.11 1.657 2.03-0.278 4.73-1.017 6.02-1.642zm-2.67-13.704c0.5-1.51 2.11-1.666 2.58-0.25 0.23 0.688-0.33 1.25-1.25 1.25s-1.52-0.45-1.33-1zm-8.17-1.5c0-0.825 0.45-1.5 1-1.5s1 0.675 1 1.5-0.45 1.5-1 1.5-1-0.675-1-1.5zm11.25-4.75c0.63-1.892 3.75-2.161 3.75-0.323 0 0.927-0.86 1.573-2.08 1.573-1.23 0-1.91-0.517-1.67-1.25zm-16.25-1.281c0-2.054 1.88-2.628 5.43-1.66 4.85 1.322 4.36 3.191-0.85 3.191-3.45 0-4.58-0.379-4.58-1.531zm12.34-2.258c-5.65-0.2-8.53-0.738-9.37-1.75-0.67-0.804-2.06-1.461-3.09-1.461-1.04 0-1.88-0.247-1.88-0.55 0-1.536 3.21-6.465 4.28-6.561 2.81-0.254 6.54 0.312 11.72 1.781 3.02 0.859 8.09 1.584 11.25 1.612 6.42 0.057 8.16 2.286 2.64 3.39-2.51 0.501-2.8 0.799-1.5 1.525 2.76 1.544 1.78 2.686-2.14 2.49-2.06-0.103-7.42-0.317-11.91-0.476zm9.66-3.092c0-1.419-15.11-5.017-18.25-4.346-4.81 1.027 0.28 3.921 7.17 4.077 2.96 0.066 5.52 0.252 5.68 0.413 0.74 0.742 5.4 0.617 5.4-0.144zm-8.5-12.16c-1.65-0.509-4.84-1.38-7.09-1.937-5.75-1.422-7.8-6.241-5.37-12.62 0.69-1.818 1.37-2.394 2.03-1.728 0.67 0.667 0.66 1.903-0.03 3.709-2.14 5.636 4.26 9.917 15.04 10.057 5.72 0.075 11.06-2.694 13.34-6.912 2.51-4.661 1.29-7.92-4.13-11.1-3.92-2.296-5.37-2.592-10.95-2.237s-6.76 0.789-8.89 3.271c-2.65 3.077-4.03 2.929-3-0.32 0.9-2.811 8.31-6.142 13.67-6.142 8.6 0 17.88 6.714 17.88 12.939 0 8.079-13.39 15.827-22.5 13.02zm0.5-8.959c0-0.55 0.45-1 1-1s1 0.45 1 1-0.45 1-1 1-1-0.45-1-1zm12-5.441c0-0.243 0.45-0.719 1-1.059s1-0.141 1 0.441-0.45 1.059-1 1.059-1-0.198-1-0.441zm-53 52.382c0-1.132-0.43-1.793-0.96-1.468-0.52 0.325-0.7 1.252-0.39 2.059 0.79 2.067 1.35 1.824 1.35-0.591zm-3.453-0.018c0.366-0.592-0.242-1.922-1.351-2.955-1.677-1.562-2.11-1.633-2.575-0.423-0.307 0.8-0.122 1.455 0.41 1.455 0.533 0 0.969 0.675 0.969 1.5 0 1.737 1.574 1.999 2.547 0.423zm-6.047-0.923c-0.34-0.55-1.041-1-1.559-1s-0.941 0.45-0.941 1 0.702 1 1.559 1 1.281-0.45 0.941-1zm102.18-0.346c2.09-2.092-7.68-3.565-13.43-2.024-2.68 0.719-2.94 2.071-0.5 2.609 2.95 0.652 13.12 0.225 13.93-0.585zm-101.39-4.749c0.553-0.878 0.684-2.873 0.292-4.435l-0.713-2.839-2.291 2.874c-2.449 3.071-2.335 6.792 0.194 6.293 0.833-0.164 1.966-1.016 2.518-1.893zm8.71-8.464c0-0.243-0.45-0.441-1-0.441s-1 0.477-1 1.059 0.45 0.781 1 0.441 1-0.816 1-1.059zm-6.63-6.691c0.95-3.547 0.748-12.276-0.259-11.2-1.13 1.207-2.143 13.45-1.113 13.45 0.423 0 1.04-1.012 1.372-2.25zm5.66-3.694c-1.074-2.007-3.03-3.653-3.03-2.549 0 1.374 2.13 4.493 3.07 4.493 0.65 0 0.64-0.675-0.04-1.944zm71.97-0.056c0-0.55-0.48-1-1.06-1s-0.78 0.45-0.44 1 0.82 1 1.06 1 0.44-0.45 0.44-1zm-74.138-12.751c-0.158-1.512 0.078-3.342 0.525-4.066s0.543-1.586 0.213-1.916-0.6-0.075-0.6 0.566c0 0.642-0.9 1.167-2 1.167-1.619 0-2 0.667-2 3.5 0 2.876 0.37 3.5 2.075 3.5 1.668 0 2.019-0.541 1.787-2.751zm0.138-8.284c0-1.34-4.727-1.216-5.569 0.147-0.378 0.611-0.091 1.48 0.637 1.93 1.463 0.904 4.932-0.557 4.932-2.077zm-1-6.524c0-0.857-0.45-1.281-1-0.941s-1 1.041-1 1.559 0.45 0.941 1 0.941 1-0.702 1-1.559zm94.44 180.81c-0.98-6.77-2.37-8.79-2.41-3.5-0.02 2.34-0.45 4.25-0.97 4.25s-0.95-4.86-0.98-10.96c-0.03-6.02-0.17-11.31-0.32-11.74-0.14-0.44 0.19-1.02 0.74-1.3 0.58-0.29 1.25 1.84 1.59 5l0.58 5.5 0.17-5.25c0.3-9.76 1.85-5.33 2.48 7.09 0.34 6.79 0.91 13.09 1.26 14s0.16 1.66-0.41 1.66c-0.58 0-1.36-2.14-1.73-4.75zm-8.98-28.65c-1.49-1.09-1.93-2.64-1.94-6.76-0.02-4.14-0.41-5.5-1.77-6.06-2.33-0.95-2.23-2.84 0.19-3.47 1.06-0.28 2.39-1.82 2.95-3.41 1.39-4.01 4.49-3.97 3.9 0.05-0.35 2.4-0.04 3.01 1.63 3.25 1.13 0.17 2.21 1.09 2.39 2.05 0.25 1.3-0.33 1.75-2.24 1.75-2.38 0-2.57 0.33-2.57 4.5 0 4.62 1.61 6.28 2.18 2.25 0.18-1.24 0.77-2.25 1.32-2.25 1.22 0 1.82 5.57 0.76 7.12-1.33 1.95-4.78 2.45-6.8 0.98zm10.02 0.36c-0.18-0.29-0.32-3.58-0.29-7.3 0.04-8.36 1.76-10.08 8.86-8.86l4.45 0.76 0.11 4.47c0.06 2.46 0.44 5.22 0.83 6.14 0.46 1.09-0.03 2.42-1.39 3.78-1.69 1.69-3.12 2.05-7.17 1.83-2.78-0.15-5.21-0.52-5.4-0.82zm8.52-3.89c0-1.08-3.89-2.51-4.68-1.73-0.28 0.29-0.22 1.01 0.14 1.59 0.81 1.32 4.54 1.43 4.54 0.14zm1-7c0-1.08-3.89-2.51-4.68-1.73-0.28 0.29-0.22 1.01 0.14 1.59 0.81 1.32 4.54 1.43 4.54 0.14zm-112.92 10.16c-2.542-0.91-6.019-5.67-6.015-8.23 0.007-4.85 4.973-10 9.643-10 2.997 0 7.21 4.04 7.86 7.55 1.25 6.64-5.439 12.86-11.488 10.68zm4.655-4.48c1.627-2.07 2.248-7.37 1.009-8.6-2.823-2.83-7.285 0.57-6.238 4.74 1.16 4.62 3.358 6.24 5.229 3.86zm8.323 3.91c-1.22-1.22-0.18-3.66 1.55-3.66 0.98 0 1.39-1.32 1.39-4.5 0-3.33-0.39-4.5-1.5-4.5-0.83 0-1.5-0.89-1.5-2 0-2.24 3.69-2.77 7.01-1 1.25 0.67 2.07 0.67 2.49 0 1.01-1.63 5.06-1.14 6.85 0.83 1.08 1.2 1.65 3.59 1.65 6.97 0 3.94 0.32 5.01 1.37 4.61 1.52-0.58 2.82 1.74 1.79 3.19-0.85 1.19-19.92 1.24-21.1 0.06zm12.94-8.27c0-4.4-0.47-4.92-3.42-3.78-1.94 0.74-2.21 8-0.33 8.66 2.62 0.91 3.75-0.55 3.75-4.88zm12.61 8.89c-1.67-0.43-1.82-1.17-1.29-6.78 0.55-5.88 0.44-6.33-1.62-6.87-2.2-0.59-2.19-0.59 0.47-3.08 1.47-1.37 2.97-3.43 3.34-4.57 0.97-3.08 3.01-1.76 2.85 1.85-0.12 2.6 0.19 3.07 1.95 2.89 1.32-0.14 2.24 0.44 2.47 1.53 0.27 1.31-0.28 1.75-2.21 1.75-2.38 0-2.57 0.33-2.57 4.5 0 2.48 0.45 4.5 1 4.5s1-0.9 1-2c0-1.11 0.67-2 1.5-2 2.16 0 1.97 5.93-0.25 7.61-1.8 1.36-3.34 1.52-6.64 0.67zm12.84-1.93c-6.94-7.48 2.87-19.6 10.82-13.36 2.3 1.82 2.73 2.91 2.73 7.01 0 4.05-0.43 5.2-2.63 6.93-3.68 2.89-7.91 2.67-10.92-0.58zm9.36-3.6c0.26-1.36-0.35-1.75-2.74-1.75-2.92 0-4.08 1.66-2.36 3.38 1.27 1.27 4.76 0.16 5.1-1.63zm-0.81-5.78c0-1.88-3.13-2.27-4.79-0.61-1.52 1.52-1.4 1.64 1.58 1.64 1.76 0 3.21-0.46 3.21-1.03zm6 10.57c0-0.77 0.86-1.68 1.9-2.01 2.71-0.86 3.43-9.21 0.85-9.88-0.96-0.26-1.75-1.2-1.75-2.11 0-1.31 1.04-1.63 5.25-1.62 2.89 0.01 6.29-0.01 7.57-0.05 3.27-0.1 5.11 2.87 5.15 8.31 0.02 3.83 0.4 4.8 2.09 5.34 1.13 0.36 1.88 1.17 1.66 1.81-0.25 0.78-4.11 1.24-11.55 1.39-9.02 0.18-11.17-0.05-11.17-1.18zm14-7.73c0-3.52-0.24-3.91-2.25-3.63-1.83 0.26-2.31 1.06-2.57 4.22-0.2 2.4 0.17 4.2 0.97 4.69 2.11 1.31 3.85-1.08 3.85-5.28zm-104.1 6.91c-2.487-1.9-4.904-7.29-4.9-10.92 0.004-3.72 2.944-9.17 5.767-10.68 1.034-0.55 4.883-0.92 8.554-0.82l6.675 0.19v4.69c0 2.59-0.359 4.92-0.798 5.2-1.24 0.76-2.861-0.65-3.652-3.19-0.396-1.26-1.244-2.11-1.885-1.88s-1.883 0.05-2.76-0.4c-1.004-0.51-2.437-0.23-3.864 0.77-1.973 1.39-2.207 2.24-1.795 6.53 0.596 6.2 2.444 8.24 6.644 7.31 2.183-0.48 3.297-1.42 3.732-3.15 0.399-1.59 1.2-2.35 2.249-2.13 2.424 0.5 1.697 5.82-1.09 7.96-2.661 2.05-10.462 2.36-12.877 0.52zm122.09-23.97c0-1.24-0.29-4.73-0.63-7.75-0.49-4.34-0.36-5.26 0.62-4.34 1.67 1.56 2.7 14.34 1.16 14.34-0.63 0-1.14-1.01-1.15-2.25zm-68.99-27.69c0-0.58 0.45-1.06 1-1.06s1 0.2 1 0.44-0.45 0.72-1 1.06-1 0.14-1-0.44z"/>
  </g>
  <metadata>
    <rdf:RDF>
      <cc:Work>
        <dc:format>image/svg+xml</dc:format>
        <dc:type rdf:resource="http://purl.org/dc/dcmitype/StillImage"/>
        <cc:license rdf:resource="http://creativecommons.org/licenses/publicdomain/"/>
        <dc:publisher>
          <cc:Agent rdf:about="http://openclipart.org/">
            <dc:title>Openclipart</dc:title>
          </cc:Agent>
        </dc:publisher>
        <dc:title>Contents on a table</dc:title>
        <dc:date>2009-09-24T22:53:30</dc:date>
        <dc:description>Contents + table&#xD;\n&#xD;\nblack and white trace&#xD;\nFROM: The Complete Book of Cheese &#xD;\nby Robert Carlton Brown&#xD;\nGutenberg EText-No.   14293</dc:description>
        <dc:source>http://openclipart.org/detail/27518/contents-on-a-table-by-tom-27518</dc:source>
        <dc:creator>
          <cc:Agent>
            <dc:title>tom</dc:title>
          </cc:Agent>
        </dc:creator>
        <dc:subject>
          <rdf:Bag>
            <rdf:li>clip art</rdf:li>
            <rdf:li>clipart</rdf:li>
            <rdf:li>contents</rdf:li>
            <rdf:li>dinner</rdf:li>
            <rdf:li>externalsource</rdf:li>
            <rdf:li>media</rdf:li>
            <rdf:li>menu</rdf:li>
            <rdf:li>restaurant</rdf:li>
            <rdf:li>table</rdf:li>
            <rdf:li>wine</rdf:li>
          </rdf:Bag>
        </dc:subject>
      </cc:Work>
      <cc:License rdf:about="http://creativecommons.org/licenses/publicdomain/">
        <cc:permits rdf:resource="http://creativecommons.org/ns#Reproduction"/>
        <cc:permits rdf:resource="http://creativecommons.org/ns#Distribution"/>
        <cc:permits rdf:resource="http://creativecommons.org/ns#DerivativeWorks"/>
      </cc:License>
    </rdf:RDF>
  </metadata>
</svg>
